<svg xmlns="http://www.w3.org/2000/svg" viewBox="0 0 160 160" fill="none"><defs><mask id="clear"><rect width="160" height="160" fill="white"/><circle cx="80" cy="80" r="53" fill="black"/></mask></defs><g mask="url(#clear)"><circle cx="80" cy="80" r="55" stroke="#a6afb9" stroke-width="3"/><circle cx="80" cy="80" r="58" stroke="#58636e" stroke-width="1" opacity=".7"/><g transform="translate(80 80) scale(.90) translate(-80 -80)"><g transform="rotate(0 80 80)"><path d="M61 29V17L68 10H92L99 17V29L91 26V18H69V26Z" fill="#a6afb9"/><path d="M69 18H91V24H69Z" fill="#58636e"/></g><g transform="rotate(90 80 80)"><path d="M61 29V17L68 10H92L99 17V29L91 26V18H69V26Z" fill="#a6afb9"/><path d="M69 18H91V24H69Z" fill="#58636e"/></g><g transform="rotate(180 80 80)"><path d="M61 29V17L68 10H92L99 17V29L91 26V18H69V26Z" fill="#a6afb9"/><path d="M69 18H91V24H69Z" fill="#58636e"/></g><g transform="rotate(270 80 80)"><path d="M61 29V17L68 10H92L99 17V29L91 26V18H69V26Z" fill="#a6afb9"/><path d="M69 18H91V24H69Z" fill="#58636e"/></g></g></g></svg>
